<svg width="158" height="152" viewBox="0 0 158 152" fill="none" xmlns="http://www.w3.org/2000/svg">
<g clip-path="url(#clip0_106_17)">
<path fill-rule="evenodd" clip-rule="evenodd" d="M78.1257 37.802C56.3262 37.802 38.6696 55.4586 38.6696 77.2581C38.6696 94.7174 49.9639 109.464 65.6477 114.692C67.6205 115.037 68.3603 113.854 68.3603 112.818C68.3603 111.881 68.311 108.774 68.311 105.469C58.3976 107.294 55.833 103.053 55.0438 100.833C54.6 99.6988 52.6765 96.197 50.9996 95.26C49.6186 94.5202 47.6458 92.6953 50.9503 92.646C54.0574 92.5967 56.2768 95.5066 57.0166 96.6902C60.5677 102.658 66.2395 100.981 68.5082 99.9454C68.8535 97.3807 69.8892 95.6545 71.0236 94.6681C62.2446 93.6817 53.071 90.2786 53.071 75.1867C53.071 70.8958 54.6 67.3448 57.1153 64.5828C56.7207 63.5964 55.3398 59.5522 57.5098 54.127C57.5098 54.127 60.8143 53.0912 68.3603 58.1712C71.5168 57.2835 74.8705 56.8396 78.2243 56.8396C81.5781 56.8396 84.9319 57.2835 88.0883 58.1712C95.6343 53.0419 98.9388 54.127 98.9388 54.127C101.109 59.5522 99.7279 63.5964 99.3333 64.5828C101.849 67.3448 103.378 70.8465 103.378 75.1867C103.378 90.3279 94.1547 93.6817 85.3757 94.6681C86.806 95.9011 88.039 98.2685 88.039 101.968C88.039 107.245 87.9897 111.486 87.9897 112.818C87.9897 113.854 88.7295 115.087 90.7023 114.692C106.287 109.464 117.582 94.6681 117.582 77.2581C117.582 55.4586 99.9252 37.802 78.1257 37.802Z" fill="white"/>
</g>
<rect x="1.61011" y="1.6394" width="153.928" height="148.547" rx="16.5" stroke="white" stroke-width="3"/>
<defs>
<clipPath id="clip0_106_17">
<rect width="78.9122" height="78.9122" fill="white" transform="translate(38.6696 37.802)"/>
</clipPath>
</defs>
</svg>
