<svg width="157" height="151" viewBox="0 0 157 151" fill="none" xmlns="http://www.w3.org/2000/svg">
<g clip-path="url(#clip0_106_19)">
<path d="M124.527 74.7069C124.522 64.9099 121.289 55.3828 115.321 47.5757C109.353 39.7686 100.976 34.109 91.4647 31.4585C81.9538 28.808 71.8301 29.3117 62.6345 32.8929C53.4389 36.4741 45.6751 42.9368 40.5247 51.2971C35.3744 59.6574 33.1196 69.4575 34.1036 79.2058C35.0876 88.954 39.2565 98.1165 45.9757 105.299C52.695 112.481 61.5965 117.289 71.3255 118.992C81.0544 120.694 91.078 119.198 99.8704 114.731C102.307 116.218 105.098 117.038 107.958 117.107C110.818 117.176 113.646 116.491 116.152 115.123C118.659 113.755 120.755 111.752 122.226 109.318C123.697 106.885 124.491 104.108 124.527 101.271C124.531 97.7818 123.359 94.3915 121.198 91.6383C123.403 86.2615 124.533 80.5112 124.527 74.7069ZM79.181 112.006C59.1588 112.006 42.9316 95.3092 42.9316 74.7069C42.9316 54.1046 59.1588 37.3794 79.181 37.3794C99.2032 37.3794 115.43 54.0975 115.43 74.7069C115.436 78.6354 114.834 82.5415 113.644 86.2886C111.951 85.718 110.174 85.4272 108.386 85.4278C104.127 85.407 100.034 87.0642 97.0074 90.0352C93.9805 93.0061 92.2673 97.0475 92.2446 101.271C92.2413 103.863 92.8871 106.415 94.1241 108.698C89.4508 110.882 84.3473 112.012 79.181 112.006ZM118.845 101.292C118.833 102.642 118.553 103.976 118.021 105.219C117.488 106.462 116.714 107.588 115.743 108.534C114.772 109.48 113.622 110.227 112.36 110.732C111.097 111.238 109.747 111.492 108.386 111.479C107.495 111.48 106.609 111.37 105.746 111.152C104.321 110.794 102.988 110.142 101.836 109.237C100.684 108.332 99.7375 107.195 99.0597 105.902C98.3129 104.478 97.924 102.897 97.9262 101.292C97.9384 99.9421 98.2187 98.6078 98.7509 97.3652C99.2831 96.1226 100.057 94.9961 101.028 94.0502C102 93.1042 103.149 92.3572 104.412 91.8518C105.674 91.3464 107.024 91.0926 108.386 91.1048C109.448 91.1046 110.504 91.2605 111.521 91.5672C113.021 92.0239 114.399 92.8106 115.55 93.8687C116.702 94.9268 117.598 96.229 118.171 97.6782C118.619 98.8312 118.847 100.057 118.845 101.292Z" fill="#7E67EE"/>
</g>
<rect x="2.40015" y="1.84937" width="153.031" height="147.651" rx="16.5" stroke="white" stroke-width="3"/>
<defs>
<clipPath id="clip0_106_19">
<rect width="107.608" height="106.711" fill="white" transform="translate(25.1118 21.8708)"/>
</clipPath>
</defs>
</svg>
